<svg viewBox="0 0 900 585" role="img" aria-label="Graph of f on the closed domain from negative six to six" class="u1-graph u1-graph-large"><defs><clipPath id="u1-limit-graph-clip"><rect x="70" y="70" width="760" height="435"/></clipPath></defs><rect x="70" y="70" width="760" height="435" fill="#090909"/><path d="M70,70 V505" stroke="#303030"/><text x="70" y="535" text-anchor="middle" fill="#e8e8e8" font-size="18">-6</text><path d="M133.33333333333334,70 V505" stroke="#303030"/><text x="133.33333333333334" y="535" text-anchor="middle" fill="#e8e8e8" font-size="18">-5</text><path d="M196.66666666666669,70 V505" stroke="#303030"/><text x="196.66666666666669" y="535" text-anchor="middle" fill="#e8e8e8" font-size="18">-4</text><path d="M260,70 V505" stroke="#303030"/><text x="260" y="535" text-anchor="middle" fill="#e8e8e8" font-size="18">-3</text><path d="M323.33333333333337,70 V505" stroke="#303030"/><text x="323.33333333333337" y="535" text-anchor="middle" fill="#e8e8e8" font-size="18">-2</text><path d="M386.6666666666667,70 V505" stroke="#303030"/><text x="386.6666666666667" y="535" text-anchor="middle" fill="#e8e8e8" font-size="18">-1</text><path d="M450,70 V505" stroke="#303030"/><text x="450" y="535" text-anchor="middle" fill="#e8e8e8" font-size="18">0</text><path d="M513.3333333333333,70 V505" stroke="#303030"/><text x="513.3333333333333" y="535" text-anchor="middle" fill="#e8e8e8" font-size="18">1</text><path d="M576.6666666666667,70 V505" stroke="#303030"/><text x="576.6666666666667" y="535" text-anchor="middle" fill="#e8e8e8" font-size="18">2</text><path d="M640,70 V505" stroke="#303030"/><text x="640" y="535" text-anchor="middle" fill="#e8e8e8" font-size="18">3</text><path d="M703.3333333333334,70 V505" stroke="#303030"/><text x="703.3333333333334" y="535" text-anchor="middle" fill="#e8e8e8" font-size="18">4</text><path d="M766.6666666666666,70 V505" stroke="#303030"/><text x="766.6666666666666" y="535" text-anchor="middle" fill="#e8e8e8" font-size="18">5</text><path d="M830,70 V505" stroke="#303030"/><text x="830" y="535" text-anchor="middle" fill="#e8e8e8" font-size="18">6</text><path d="M70,505 H830" stroke="#303030"/><text x="54" y="511" text-anchor="end" fill="#e8e8e8" font-size="18">-7</text><path d="M70,475 H830" stroke="#303030"/><text x="54" y="481" text-anchor="end" fill="#e8e8e8" font-size="18">-6</text><path d="M70,445 H830" stroke="#303030"/><text x="54" y="451" text-anchor="end" fill="#e8e8e8" font-size="18">-5</text><path d="M70,415 H830" stroke="#303030"/><text x="54" y="421" text-anchor="end" fill="#e8e8e8" font-size="18">-4</text><path d="M70,385 H830" stroke="#303030"/><text x="54" y="391" text-anchor="end" fill="#e8e8e8" font-size="18">-3</text><path d="M70,355 H830" stroke="#303030"/><text x="54" y="361" text-anchor="end" fill="#e8e8e8" font-size="18">-2</text><path d="M70,325 H830" stroke="#303030"/><text x="54" y="331" text-anchor="end" fill="#e8e8e8" font-size="18">-1</text><path d="M70,295 H830" stroke="#303030"/><text x="54" y="301" text-anchor="end" fill="#e8e8e8" font-size="18">0</text><path d="M70,265 H830" stroke="#303030"/><text x="54" y="271" text-anchor="end" fill="#e8e8e8" font-size="18">1</text><path d="M70,235 H830" stroke="#303030"/><text x="54" y="241" text-anchor="end" fill="#e8e8e8" font-size="18">2</text><path d="M70,205 H830" stroke="#303030"/><text x="54" y="211" text-anchor="end" fill="#e8e8e8" font-size="18">3</text><path d="M70,175 H830" stroke="#303030"/><text x="54" y="181" text-anchor="end" fill="#e8e8e8" font-size="18">4</text><path d="M70,145 H830" stroke="#303030"/><text x="54" y="151" text-anchor="end" fill="#e8e8e8" font-size="18">5</text><path d="M70,115 H830" stroke="#303030"/><text x="54" y="121" text-anchor="end" fill="#e8e8e8" font-size="18">6</text><path d="M70,85 H830" stroke="#303030"/><text x="54" y="91" text-anchor="end" fill="#e8e8e8" font-size="18">7</text><path d="M70,295 H830 M450,70 V505" stroke="#b7b7b7" stroke-width="2"/><text x="855" y="535" fill="white" font-size="21">x</text><text x="35" y="48" fill="white" font-size="21">y</text><path clip-path="url(#u1-limit-graph-clip)" d="M70,355 C133.33333333333334,392.5 196.66666666666669,347.5 260,385" stroke="#f5c400" fill="none" stroke-width="4"/><path clip-path="url(#u1-limit-graph-clip)" d="M260,415 C323.33333333333337,437.5 386.6666666666667,212.5 450,235" stroke="#f5c400" fill="none" stroke-width="4"/><path clip-path="url(#u1-limit-graph-clip)" d="M450,235 C513.3333333333333,197.5 576.6666666666667,362.5 640,325" stroke="#f5c400" fill="none" stroke-width="4"/><path clip-path="url(#u1-limit-graph-clip)" d="M640,325 C703.3333333333334,347.5 766.6666666666666,332.5 830,355" stroke="#f5c400" fill="none" stroke-width="4"/><circle cx="260" cy="385" r="7" fill="#090909" stroke="#f5c400" stroke-width="3"/><circle cx="260" cy="415" r="7" fill="#090909" stroke="#f5c400" stroke-width="3"/><circle cx="260" cy="385" r="7" fill="#f5c400" stroke="#f5c400"/><circle cx="450" cy="235" r="7" fill="#090909" stroke="#f5c400" stroke-width="3"/><circle cx="450" cy="235" r="7" fill="#f5c400" stroke="#f5c400"/><circle cx="640" cy="325" r="7" fill="#090909" stroke="#f5c400" stroke-width="3"/><circle cx="70" cy="355" r="7" fill="#f5c400" stroke="#f5c400"/><circle cx="830" cy="355" r="7" fill="#f5c400" stroke="#f5c400"/></svg>